<svg id="Group_150_Copy_3" data-name="Group 150 Copy 3" xmlns="http://www.w3.org/2000/svg" xmlns:xlink="http://www.w3.org/1999/xlink" width="282.6" height="27" viewBox="0 0 282.6 27">
  <defs>
    <clipPath id="clip-path">
      <path id="Clip_2" data-name="Clip 2" d="M0,0H2.772V2.772H0Z" transform="translate(0 0.228)" fill="none"/>
    </clipPath>
    <clipPath id="clip-path-2">
      <path id="Clip_9" data-name="Clip 9" d="M0,0H3.08V2.772H0Z" transform="translate(0.66 0.228)" fill="none"/>
    </clipPath>
    <clipPath id="clip-path-3">
      <path id="Clip_16" data-name="Clip 16" d="M0,0H3.08V2.772H0Z" transform="translate(0.653 0.228)" fill="none"/>
    </clipPath>
    <clipPath id="clip-path-4">
      <path id="Clip_23" data-name="Clip 23" d="M0,0H3.08V2.772H0Z" transform="translate(0.647 0.228)" fill="none"/>
    </clipPath>
    <clipPath id="clip-path-5">
      <path id="Clip_30" data-name="Clip 30" d="M0,0H3.08V2.772H0Z" transform="translate(0.64 0.228)" fill="none"/>
    </clipPath>
    <clipPath id="clip-path-6">
      <path id="Clip_37" data-name="Clip 37" d="M0,0H3.08V2.772H0Z" transform="translate(0.633 0.228)" fill="none"/>
    </clipPath>
    <clipPath id="clip-path-7">
      <path id="Clip_44" data-name="Clip 44" d="M0,0H3.08V2.772H0Z" transform="translate(0.627 0.228)" fill="none"/>
    </clipPath>
    <clipPath id="clip-path-8">
      <path id="Clip_51" data-name="Clip 51" d="M0,0H3.08V2.772H0Z" transform="translate(0.62 0.228)" fill="none"/>
    </clipPath>
    <clipPath id="clip-path-9">
      <path id="Clip_58" data-name="Clip 58" d="M0,0H3.08V2.772H0Z" transform="translate(0.607 0.228)" fill="none"/>
    </clipPath>
    <clipPath id="clip-path-10">
      <path id="Clip_65" data-name="Clip 65" d="M0,0H3.08V2.772H0Z" transform="translate(0.6 0.228)" fill="none"/>
    </clipPath>
    <clipPath id="clip-path-11">
      <path id="Clip_72" data-name="Clip 72" d="M0,0H3.08V2.772H0Z" transform="translate(0.593 0.228)" fill="none"/>
    </clipPath>
    <clipPath id="clip-path-12">
      <path id="Clip_79" data-name="Clip 79" d="M0,0H3.081V2.772H0Z" transform="translate(0.586 0.228)" fill="none"/>
    </clipPath>
    <clipPath id="clip-path-13">
      <path id="Clip_86" data-name="Clip 86" d="M0,0H3.081V2.772H0Z" transform="translate(0.58 0.228)" fill="none"/>
    </clipPath>
    <clipPath id="clip-path-14">
      <path id="Clip_93" data-name="Clip 93" d="M0,0H3.081V2.772H0Z" transform="translate(0.573 0.228)" fill="none"/>
    </clipPath>
    <clipPath id="clip-path-15">
      <path id="Clip_100" data-name="Clip 100" d="M0,0H3.081V2.772H0Z" transform="translate(0.566 0.228)" fill="none"/>
    </clipPath>
    <clipPath id="clip-path-16">
      <path id="Clip_107" data-name="Clip 107" d="M0,0H3.081V2.772H0Z" transform="translate(0.56 0.228)" fill="none"/>
    </clipPath>
    <clipPath id="clip-path-17">
      <path id="Clip_114" data-name="Clip 114" d="M0,0H3.081V2.772H0Z" transform="translate(0.553 0.228)" fill="none"/>
    </clipPath>
    <clipPath id="clip-path-18">
      <path id="Clip_121" data-name="Clip 121" d="M0,0H3.081V2.772H0Z" transform="translate(0.547 0.228)" fill="none"/>
    </clipPath>
    <clipPath id="clip-path-19">
      <path id="Clip_128" data-name="Clip 128" d="M0,0H3.081V2.772H0Z" transform="translate(0.539 0.228)" fill="none"/>
    </clipPath>
    <clipPath id="clip-path-20">
      <path id="Clip_135" data-name="Clip 135" d="M0,0H3.081V2.772H0Z" transform="translate(0.533 0.228)" fill="none"/>
    </clipPath>
    <clipPath id="clip-path-21">
      <path id="Clip_142" data-name="Clip 142" d="M0,0H3.08V2.772H0Z" transform="translate(0.52 0.228)" fill="none"/>
    </clipPath>
    <clipPath id="clip-path-22">
      <path id="Clip_145" data-name="Clip 145" d="M0,0H3.08V2.772H0Z" transform="translate(0.52 0.12)" fill="none"/>
    </clipPath>
    <clipPath id="clip-path-23">
      <path id="Clip_148" data-name="Clip 148" d="M0,0H3.08V2.772H0Z" transform="translate(0.52 0.006)" fill="none"/>
    </clipPath>
  </defs>
  <g id="Group_3" data-name="Group 3" transform="translate(0 24)">
    <path id="Clip_2-2" data-name="Clip 2" d="M0,0H2.772V2.772H0Z" transform="translate(0 0.228)" fill="none"/>
    <g id="Group_3-2" data-name="Group 3" clip-path="url(#clip-path)">
      <path id="Fill_1" data-name="Fill 1" d="M1.386,0A1.386,1.386,0,1,1,0,1.386,1.386,1.386,0,0,1,1.386,0" transform="translate(0 0.228)" fill="#ccc"/>
    </g>
  </g>
  <path id="Fill_4" data-name="Fill 4" d="M1.5,0A1.5,1.5,0,1,1,0,1.5,1.5,1.5,0,0,1,1.5,0" transform="translate(0 11)" fill="#ccc"/>
  <path id="Fill_6" data-name="Fill 6" d="M1.5,0A1.5,1.5,0,1,1,0,1.5,1.5,1.5,0,0,1,1.5,0" fill="#ccc"/>
  <g id="Group_10" data-name="Group 10" transform="translate(14 24)">
    <path id="Clip_9-2" data-name="Clip 9" d="M0,0H3.08V2.772H0Z" transform="translate(0.66 0.228)" fill="none"/>
    <g id="Group_10-2" data-name="Group 10" clip-path="url(#clip-path-2)">
      <path id="Fill_8" data-name="Fill 8" d="M1.54,0A1.469,1.469,0,0,1,3.08,1.386,1.469,1.469,0,0,1,1.54,2.772,1.47,1.47,0,0,1,0,1.386,1.469,1.469,0,0,1,1.54,0" transform="translate(0.66 0.228)" fill="#ccc"/>
    </g>
  </g>
  <path id="Fill_11" data-name="Fill 11" d="M1.5,0A1.5,1.5,0,1,1,0,1.5,1.5,1.5,0,0,1,1.5,0" transform="translate(14 11)" fill="#ccc"/>
  <path id="Fill_13" data-name="Fill 13" d="M1.5,0A1.5,1.5,0,1,1,0,1.5,1.5,1.5,0,0,1,1.5,0" transform="translate(14)" fill="#ccc"/>
  <g id="Group_17" data-name="Group 17" transform="translate(27 24)">
    <path id="Clip_16-2" data-name="Clip 16" d="M0,0H3.08V2.772H0Z" transform="translate(0.653 0.228)" fill="none"/>
    <g id="Group_17-2" data-name="Group 17" clip-path="url(#clip-path-3)">
      <path id="Fill_15" data-name="Fill 15" d="M1.54,0A1.469,1.469,0,0,1,3.08,1.386,1.469,1.469,0,0,1,1.54,2.772,1.469,1.469,0,0,1,0,1.386,1.469,1.469,0,0,1,1.54,0" transform="translate(0.653 0.228)" fill="#ccc"/>
    </g>
  </g>
  <path id="Fill_18" data-name="Fill 18" d="M1.5,0A1.5,1.5,0,1,1,0,1.5,1.5,1.5,0,0,1,1.5,0" transform="translate(28 11)" fill="#ccc"/>
  <path id="Fill_20" data-name="Fill 20" d="M1.5,0A1.5,1.5,0,1,1,0,1.5,1.5,1.5,0,0,1,1.5,0" transform="translate(28)" fill="#ccc"/>
  <g id="Group_24" data-name="Group 24" transform="translate(42 24)">
    <path id="Clip_23-2" data-name="Clip 23" d="M0,0H3.08V2.772H0Z" transform="translate(0.647 0.228)" fill="none"/>
    <g id="Group_24-2" data-name="Group 24" clip-path="url(#clip-path-4)">
      <path id="Fill_22" data-name="Fill 22" d="M1.54,0A1.469,1.469,0,0,1,3.08,1.386,1.469,1.469,0,0,1,1.54,2.772,1.47,1.47,0,0,1,0,1.386,1.469,1.469,0,0,1,1.54,0" transform="translate(0.647 0.228)" fill="#ccc"/>
    </g>
  </g>
  <path id="Fill_25" data-name="Fill 25" d="M1.5,0A1.5,1.5,0,1,1,0,1.5,1.5,1.5,0,0,1,1.5,0" transform="translate(42 11)" fill="#ccc"/>
  <path id="Fill_27" data-name="Fill 27" d="M1.5,0A1.5,1.5,0,1,1,0,1.5,1.5,1.5,0,0,1,1.5,0" transform="translate(42)" fill="#ccc"/>
  <g id="Group_31" data-name="Group 31" transform="translate(55 24)">
    <path id="Clip_30-2" data-name="Clip 30" d="M0,0H3.08V2.772H0Z" transform="translate(0.64 0.228)" fill="none"/>
    <g id="Group_31-2" data-name="Group 31" clip-path="url(#clip-path-5)">
      <path id="Fill_29" data-name="Fill 29" d="M1.54,0A1.469,1.469,0,0,1,3.08,1.386,1.469,1.469,0,0,1,1.54,2.772,1.469,1.469,0,0,1,0,1.386,1.469,1.469,0,0,1,1.54,0" transform="translate(0.64 0.228)" fill="#ccc"/>
    </g>
  </g>
  <path id="Fill_32" data-name="Fill 32" d="M1.5,0A1.5,1.5,0,1,1,0,1.5,1.5,1.5,0,0,1,1.5,0" transform="translate(56 11)" fill="#ccc"/>
  <path id="Fill_34" data-name="Fill 34" d="M1.5,0A1.5,1.5,0,1,1,0,1.5,1.5,1.5,0,0,1,1.5,0" transform="translate(56)" fill="#ccc"/>
  <g id="Group_38" data-name="Group 38" transform="translate(70 24)">
    <path id="Clip_37-2" data-name="Clip 37" d="M0,0H3.08V2.772H0Z" transform="translate(0.633 0.228)" fill="none"/>
    <g id="Group_38-2" data-name="Group 38" clip-path="url(#clip-path-6)">
      <path id="Fill_36" data-name="Fill 36" d="M1.54,0A1.469,1.469,0,0,1,3.08,1.386,1.469,1.469,0,0,1,1.54,2.772,1.47,1.47,0,0,1,0,1.386,1.469,1.469,0,0,1,1.54,0" transform="translate(0.633 0.228)" fill="#ccc"/>
    </g>
  </g>
  <path id="Fill_39" data-name="Fill 39" d="M1.5,0A1.5,1.5,0,1,1,0,1.5,1.5,1.5,0,0,1,1.5,0" transform="translate(70 11)" fill="#ccc"/>
  <path id="Fill_41" data-name="Fill 41" d="M1.5,0A1.5,1.5,0,1,1,0,1.5,1.5,1.5,0,0,1,1.5,0" transform="translate(70)" fill="#ccc"/>
  <g id="Group_45" data-name="Group 45" transform="translate(83 24)">
    <path id="Clip_44-2" data-name="Clip 44" d="M0,0H3.08V2.772H0Z" transform="translate(0.627 0.228)" fill="none"/>
    <g id="Group_45-2" data-name="Group 45" clip-path="url(#clip-path-7)">
      <path id="Fill_43" data-name="Fill 43" d="M1.54,0A1.469,1.469,0,0,1,3.08,1.386,1.469,1.469,0,0,1,1.54,2.772,1.469,1.469,0,0,1,0,1.386,1.469,1.469,0,0,1,1.54,0" transform="translate(0.627 0.228)" fill="#ccc"/>
    </g>
  </g>
  <path id="Fill_46" data-name="Fill 46" d="M1.5,0A1.5,1.5,0,1,1,0,1.5,1.5,1.5,0,0,1,1.5,0" transform="translate(84 11)" fill="#ccc"/>
  <path id="Fill_48" data-name="Fill 48" d="M1.5,0A1.5,1.5,0,1,1,0,1.5,1.5,1.5,0,0,1,1.5,0" transform="translate(84)" fill="#ccc"/>
  <g id="Group_52" data-name="Group 52" transform="translate(98 24)">
    <path id="Clip_51-2" data-name="Clip 51" d="M0,0H3.08V2.772H0Z" transform="translate(0.62 0.228)" fill="none"/>
    <g id="Group_52-2" data-name="Group 52" clip-path="url(#clip-path-8)">
      <path id="Fill_50" data-name="Fill 50" d="M1.54,0A1.469,1.469,0,0,1,3.08,1.386,1.47,1.47,0,0,1,1.54,2.772,1.469,1.469,0,0,1,0,1.386,1.469,1.469,0,0,1,1.54,0" transform="translate(0.62 0.228)" fill="#ccc"/>
    </g>
  </g>
  <path id="Fill_53" data-name="Fill 53" d="M1.5,0A1.5,1.5,0,1,1,0,1.5,1.5,1.5,0,0,1,1.5,0" transform="translate(97 11)" fill="#ccc"/>
  <path id="Fill_55" data-name="Fill 55" d="M1.5,0A1.5,1.5,0,1,1,0,1.5,1.5,1.5,0,0,1,1.5,0" transform="translate(97)" fill="#ccc"/>
  <g id="Group_59" data-name="Group 59" transform="translate(111 24)">
    <path id="Clip_58-2" data-name="Clip 58" d="M0,0H3.08V2.772H0Z" transform="translate(0.607 0.228)" fill="none"/>
    <g id="Group_59-2" data-name="Group 59" clip-path="url(#clip-path-9)">
      <path id="Fill_57" data-name="Fill 57" d="M1.54,0A1.469,1.469,0,0,1,3.08,1.386,1.47,1.47,0,0,1,1.54,2.772,1.469,1.469,0,0,1,0,1.386,1.469,1.469,0,0,1,1.54,0" transform="translate(0.607 0.228)" fill="#ccc"/>
    </g>
  </g>
  <path id="Fill_60" data-name="Fill 60" d="M1.5,0A1.5,1.5,0,1,1,0,1.5,1.5,1.5,0,0,1,1.5,0" transform="translate(112 11)" fill="#ccc"/>
  <path id="Fill_62" data-name="Fill 62" d="M1.5,0A1.5,1.5,0,1,1,0,1.5,1.5,1.5,0,0,1,1.5,0" transform="translate(112)" fill="#ccc"/>
  <g id="Group_66" data-name="Group 66" transform="translate(126 24)">
    <path id="Clip_65-2" data-name="Clip 65" d="M0,0H3.08V2.772H0Z" transform="translate(0.6 0.228)" fill="none"/>
    <g id="Group_66-2" data-name="Group 66" clip-path="url(#clip-path-10)">
      <path id="Fill_64" data-name="Fill 64" d="M1.54,0A1.469,1.469,0,0,1,3.08,1.386,1.469,1.469,0,0,1,1.54,2.772,1.469,1.469,0,0,1,0,1.386,1.469,1.469,0,0,1,1.54,0" transform="translate(0.6 0.228)" fill="#ccc"/>
    </g>
  </g>
  <path id="Fill_67" data-name="Fill 67" d="M1.5,0A1.5,1.5,0,1,1,0,1.5,1.5,1.5,0,0,1,1.5,0" transform="translate(125 11)" fill="#ccc"/>
  <path id="Fill_69" data-name="Fill 69" d="M1.5,0A1.5,1.5,0,1,1,0,1.5,1.5,1.5,0,0,1,1.5,0" transform="translate(125)" fill="#ccc"/>
  <g id="Group_73" data-name="Group 73" transform="translate(139 24)">
    <path id="Clip_72-2" data-name="Clip 72" d="M0,0H3.08V2.772H0Z" transform="translate(0.593 0.228)" fill="none"/>
    <g id="Group_73-2" data-name="Group 73" clip-path="url(#clip-path-11)">
      <path id="Fill_71" data-name="Fill 71" d="M1.54,0A1.469,1.469,0,0,1,3.08,1.386,1.47,1.47,0,0,1,1.54,2.772,1.469,1.469,0,0,1,0,1.386,1.469,1.469,0,0,1,1.54,0" transform="translate(0.593 0.228)" fill="#ccc"/>
    </g>
  </g>
  <path id="Fill_74" data-name="Fill 74" d="M1.5,0A1.5,1.5,0,1,1,0,1.5,1.5,1.5,0,0,1,1.5,0" transform="translate(140 11)" fill="#ccc"/>
  <path id="Fill_76" data-name="Fill 76" d="M1.5,0A1.5,1.5,0,1,1,0,1.5,1.5,1.5,0,0,1,1.5,0" transform="translate(140)" fill="#ccc"/>
  <g id="Group_80" data-name="Group 80" transform="translate(153 24)">
    <path id="Clip_79-2" data-name="Clip 79" d="M0,0H3.081V2.772H0Z" transform="translate(0.586 0.228)" fill="none"/>
    <g id="Group_80-2" data-name="Group 80" clip-path="url(#clip-path-12)">
      <path id="Fill_78" data-name="Fill 78" d="M1.541,0a1.469,1.469,0,0,1,1.54,1.386,1.47,1.47,0,0,1-1.54,1.386A1.47,1.47,0,0,1,0,1.386,1.47,1.47,0,0,1,1.541,0" transform="translate(0.586 0.228)" fill="#ccc"/>
    </g>
  </g>
  <path id="Fill_81" data-name="Fill 81" d="M1.5,0A1.5,1.5,0,1,1,0,1.5,1.5,1.5,0,0,1,1.5,0" transform="translate(153 11)" fill="#ccc"/>
  <path id="Fill_83" data-name="Fill 83" d="M1.5,0A1.5,1.5,0,1,1,0,1.5,1.5,1.5,0,0,1,1.5,0" transform="translate(153)" fill="#ccc"/>
  <g id="Group_87" data-name="Group 87" transform="translate(167 24)">
    <path id="Clip_86-2" data-name="Clip 86" d="M0,0H3.081V2.772H0Z" transform="translate(0.58 0.228)" fill="none"/>
    <g id="Group_87-2" data-name="Group 87" clip-path="url(#clip-path-13)">
      <path id="Fill_85" data-name="Fill 85" d="M1.54,0A1.47,1.47,0,0,1,3.081,1.386,1.47,1.47,0,0,1,1.54,2.772,1.47,1.47,0,0,1,0,1.386,1.469,1.469,0,0,1,1.54,0" transform="translate(0.58 0.228)" fill="#ccc"/>
    </g>
  </g>
  <path id="Fill_88" data-name="Fill 88" d="M1.5,0A1.5,1.5,0,1,1,0,1.5,1.5,1.5,0,0,1,1.5,0" transform="translate(168 11)" fill="#ccc"/>
  <path id="Fill_90" data-name="Fill 90" d="M1.5,0A1.5,1.5,0,1,1,0,1.5,1.5,1.5,0,0,1,1.5,0" transform="translate(168)" fill="#ccc"/>
  <g id="Group_94" data-name="Group 94" transform="translate(181 24)">
    <path id="Clip_93-2" data-name="Clip 93" d="M0,0H3.081V2.772H0Z" transform="translate(0.573 0.228)" fill="none"/>
    <g id="Group_94-2" data-name="Group 94" clip-path="url(#clip-path-14)">
      <path id="Fill_92" data-name="Fill 92" d="M1.54,0A1.47,1.47,0,0,1,3.081,1.386,1.47,1.47,0,0,1,1.54,2.772,1.47,1.47,0,0,1,0,1.386,1.469,1.469,0,0,1,1.54,0" transform="translate(0.573 0.228)" fill="#ccc"/>
    </g>
  </g>
  <path id="Fill_95" data-name="Fill 95" d="M1.5,0A1.5,1.5,0,1,1,0,1.5,1.5,1.5,0,0,1,1.5,0" transform="translate(181 11)" fill="#ccc"/>
  <path id="Fill_97" data-name="Fill 97" d="M1.5,0A1.5,1.5,0,1,1,0,1.5,1.5,1.5,0,0,1,1.5,0" transform="translate(181)" fill="#ccc"/>
  <g id="Group_101" data-name="Group 101" transform="translate(195 24)">
    <path id="Clip_100-2" data-name="Clip 100" d="M0,0H3.081V2.772H0Z" transform="translate(0.566 0.228)" fill="none"/>
    <g id="Group_101-2" data-name="Group 101" clip-path="url(#clip-path-15)">
      <path id="Fill_99" data-name="Fill 99" d="M1.541,0a1.469,1.469,0,0,1,1.54,1.386,1.47,1.47,0,0,1-1.54,1.386A1.47,1.47,0,0,1,0,1.386,1.47,1.47,0,0,1,1.541,0" transform="translate(0.566 0.228)" fill="#ccc"/>
    </g>
  </g>
  <path id="Fill_102" data-name="Fill 102" d="M1.5,0A1.5,1.5,0,1,1,0,1.5,1.5,1.5,0,0,1,1.5,0" transform="translate(196 11)" fill="#ccc"/>
  <path id="Fill_104" data-name="Fill 104" d="M1.5,0A1.5,1.5,0,1,1,0,1.5,1.5,1.5,0,0,1,1.5,0" transform="translate(196)" fill="#ccc"/>
  <g id="Group_108" data-name="Group 108" transform="translate(209 24)">
    <path id="Clip_107-2" data-name="Clip 107" d="M0,0H3.081V2.772H0Z" transform="translate(0.56 0.228)" fill="none"/>
    <g id="Group_108-2" data-name="Group 108" clip-path="url(#clip-path-16)">
      <path id="Fill_106" data-name="Fill 106" d="M1.541,0a1.469,1.469,0,0,1,1.54,1.386,1.47,1.47,0,0,1-1.54,1.386A1.47,1.47,0,0,1,0,1.386,1.47,1.47,0,0,1,1.541,0" transform="translate(0.56 0.228)" fill="#ccc"/>
    </g>
  </g>
  <path id="Fill_109" data-name="Fill 109" d="M1.5,0A1.5,1.5,0,1,1,0,1.5,1.5,1.5,0,0,1,1.5,0" transform="translate(209 11)" fill="#ccc"/>
  <path id="Fill_111" data-name="Fill 111" d="M1.5,0A1.5,1.5,0,1,1,0,1.5,1.5,1.5,0,0,1,1.5,0" transform="translate(209)" fill="#ccc"/>
  <g id="Group_115" data-name="Group 115" transform="translate(223 24)">
    <path id="Clip_114-2" data-name="Clip 114" d="M0,0H3.081V2.772H0Z" transform="translate(0.553 0.228)" fill="none"/>
    <g id="Group_115-2" data-name="Group 115" clip-path="url(#clip-path-17)">
      <path id="Fill_113" data-name="Fill 113" d="M1.54,0A1.47,1.47,0,0,1,3.081,1.386,1.47,1.47,0,0,1,1.54,2.772,1.47,1.47,0,0,1,0,1.386,1.469,1.469,0,0,1,1.54,0" transform="translate(0.553 0.228)" fill="#ccc"/>
    </g>
  </g>
  <path id="Fill_116" data-name="Fill 116" d="M1.5,0A1.5,1.5,0,1,1,0,1.5,1.5,1.5,0,0,1,1.5,0" transform="translate(224 11)" fill="#ccc"/>
  <path id="Fill_118" data-name="Fill 118" d="M1.5,0A1.5,1.5,0,1,1,0,1.5,1.5,1.5,0,0,1,1.5,0" transform="translate(224)" fill="#ccc"/>
  <g id="Group_122" data-name="Group 122" transform="translate(237 24)">
    <path id="Clip_121-2" data-name="Clip 121" d="M0,0H3.081V2.772H0Z" transform="translate(0.547 0.228)" fill="none"/>
    <g id="Group_122-2" data-name="Group 122" clip-path="url(#clip-path-18)">
      <path id="Fill_120" data-name="Fill 120" d="M1.54,0A1.47,1.47,0,0,1,3.081,1.386,1.47,1.47,0,0,1,1.54,2.772,1.47,1.47,0,0,1,0,1.386,1.469,1.469,0,0,1,1.54,0" transform="translate(0.547 0.228)" fill="#ccc"/>
    </g>
  </g>
  <path id="Fill_123" data-name="Fill 123" d="M1.5,0A1.5,1.5,0,1,1,0,1.5,1.5,1.5,0,0,1,1.5,0" transform="translate(237 11)" fill="#ccc"/>
  <path id="Fill_125" data-name="Fill 125" d="M1.5,0A1.5,1.5,0,1,1,0,1.5,1.5,1.5,0,0,1,1.5,0" transform="translate(237)" fill="#ccc"/>
  <g id="Group_129" data-name="Group 129" transform="translate(251 24)">
    <path id="Clip_128-2" data-name="Clip 128" d="M0,0H3.081V2.772H0Z" transform="translate(0.539 0.228)" fill="none"/>
    <g id="Group_129-2" data-name="Group 129" clip-path="url(#clip-path-19)">
      <path id="Fill_127" data-name="Fill 127" d="M1.541,0a1.469,1.469,0,0,1,1.54,1.386,1.47,1.47,0,0,1-1.54,1.386A1.47,1.47,0,0,1,0,1.386,1.47,1.47,0,0,1,1.541,0" transform="translate(0.539 0.228)" fill="#ccc"/>
    </g>
  </g>
  <path id="Fill_130" data-name="Fill 130" d="M1.5,0A1.5,1.5,0,1,1,0,1.5,1.5,1.5,0,0,1,1.5,0" transform="translate(252 11)" fill="#ccc"/>
  <path id="Fill_132" data-name="Fill 132" d="M1.5,0A1.5,1.5,0,1,1,0,1.5,1.5,1.5,0,0,1,1.5,0" transform="translate(252)" fill="#ccc"/>
  <g id="Group_136" data-name="Group 136" transform="translate(265 24)">
    <path id="Clip_135-2" data-name="Clip 135" d="M0,0H3.081V2.772H0Z" transform="translate(0.533 0.228)" fill="none"/>
    <g id="Group_136-2" data-name="Group 136" clip-path="url(#clip-path-20)">
      <path id="Fill_134" data-name="Fill 134" d="M1.541,0a1.469,1.469,0,0,1,1.54,1.386,1.47,1.47,0,0,1-1.54,1.386A1.47,1.47,0,0,1,0,1.386,1.47,1.47,0,0,1,1.541,0" transform="translate(0.533 0.228)" fill="#ccc"/>
    </g>
  </g>
  <path id="Fill_137" data-name="Fill 137" d="M1.5,0A1.5,1.5,0,1,1,0,1.5,1.5,1.5,0,0,1,1.5,0" transform="translate(265 11)" fill="#ccc"/>
  <path id="Fill_139" data-name="Fill 139" d="M1.5,0A1.5,1.5,0,1,1,0,1.5,1.5,1.5,0,0,1,1.5,0" transform="translate(265)" fill="#ccc"/>
  <g id="Group_143" data-name="Group 143" transform="translate(279 24)">
    <path id="Clip_142-2" data-name="Clip 142" d="M0,0H3.08V2.772H0Z" transform="translate(0.52 0.228)" fill="none"/>
    <g id="Group_143-2" data-name="Group 143" clip-path="url(#clip-path-21)">
      <path id="Fill_141" data-name="Fill 141" d="M1.54,0A1.47,1.47,0,0,1,3.081,1.386,1.47,1.47,0,0,1,1.54,2.772,1.47,1.47,0,0,1,0,1.386,1.469,1.469,0,0,1,1.54,0" transform="translate(0.52 0.228)" fill="#ccc"/>
    </g>
  </g>
  <g id="Group_146" data-name="Group 146" transform="translate(279 11)">
    <path id="Clip_145-2" data-name="Clip 145" d="M0,0H3.08V2.772H0Z" transform="translate(0.52 0.12)" fill="none"/>
    <g id="Group_146-2" data-name="Group 146" clip-path="url(#clip-path-22)">
      <path id="Fill_144" data-name="Fill 144" d="M1.54,0A1.47,1.47,0,0,1,3.081,1.386,1.47,1.47,0,0,1,1.54,2.772,1.469,1.469,0,0,1,0,1.386,1.469,1.469,0,0,1,1.54,0" transform="translate(0.52 0.12)" fill="#ccc"/>
    </g>
  </g>
  <g id="Group_149" data-name="Group 149" transform="translate(279)">
    <path id="Clip_148-2" data-name="Clip 148" d="M0,0H3.08V2.772H0Z" transform="translate(0.52 0.006)" fill="none"/>
    <g id="Group_149-2" data-name="Group 149" clip-path="url(#clip-path-23)">
      <path id="Fill_147" data-name="Fill 147" d="M1.54,0A1.47,1.47,0,0,1,3.081,1.386,1.47,1.47,0,0,1,1.54,2.772,1.47,1.47,0,0,1,0,1.386,1.469,1.469,0,0,1,1.54,0" transform="translate(0.52 0.006)" fill="#ccc"/>
    </g>
  </g>
</svg>
